<?xml version="1.0" encoding="UTF-8" standalone="no"?>
<!-- Created with Inkscape (http://www.inkscape.org/) -->

<svg
   width="41.501907mm"
   height="40.530579mm"
   viewBox="0 0 41.501907 40.530579"
   version="1.1"
   id="svg1"
   xml:space="preserve"
   inkscape:export-filename="logo zanate.svg"
   inkscape:export-xdpi="96"
   inkscape:export-ydpi="96"
   xmlns:inkscape="http://www.inkscape.org/namespaces/inkscape"
   xmlns:sodipodi="http://sodipodi.sourceforge.net/DTD/sodipodi-0.dtd"
   xmlns="http://www.w3.org/2000/svg"
   xmlns:svg="http://www.w3.org/2000/svg"><sodipodi:namedview
     id="namedview1"
     pagecolor="#505050"
     bordercolor="#ffffff"
     borderopacity="1"
     inkscape:showpageshadow="0"
     inkscape:pageopacity="0"
     inkscape:pagecheckerboard="1"
     inkscape:deskcolor="#505050"
     inkscape:document-units="mm" /><defs
     id="defs1" /><g
     inkscape:label="Layer 1"
     inkscape:groupmode="layer"
     id="layer1"
     transform="translate(-78.006975,-131.78901)"><path
       style="fill:#ffffff"
       d="m 82.650799,172.05741 c -1.01394,-0.45518 -1.09406,-1.04722 -0.26459,-1.95507 l 0.59532,-0.65156 -0.65099,0.16128 c -1.09477,0.27122 -2.86136,-0.33277 -3.62592,-1.23971 l -0.69765,-0.82755 2.48728,-0.16969 c 6.33878,-0.43243 11.61834,-4.02777 17.97021,-12.23757 0.35617,-0.46036 0.29722,-0.45489 -0.72656,0.0674 -4.41341,2.25156 -9.91741,1.57251 -13.23502,-1.63284 -0.61846,-0.59754 -1.12448,-1.18272 -1.12448,-1.30039 0,-0.11767 0.57606,0.078 1.28013,0.43474 3.22026,1.63183 6.88657,2.38562 9.67949,1.9901 1.95701,-0.27715 4.22254,-1.0796 5.17997,-1.83473 0.621361,-0.49008 0.565231,-0.48634 -0.92604,0.0617 -2.17341,0.79877 -7.70906,0.85622 -9.92188,0.10296 -4.75158,-1.61746 -7.95682,-4.63693 -9.13186,-8.60258 -0.12683,-0.42804 0.39642,-0.0128 1.62529,1.2899 2.90408,3.07848 6.31788,5.10324 10.09155,5.98542 2.15526,0.50383 6.60686,0.39437 7.98665,-0.19638 0.876491,-0.37527 0.810791,-0.387 -1.5875,-0.28361 -4.61201,0.19883 -8.55922,-0.83603 -12.02147,-3.15172 -3.51745,-2.35261 -5.42768,-5.32601 -5.41981,-8.43629 0.003,-1.08967 0.18061,-2.10757 0.48539,-2.77813 l 0.48103,-1.05833 0.31174,1.42986 c 0.93931,4.3084 4.66535,8.81176 9.16657,11.07888 1.4029,0.7066 4.44425,1.57865 6.02914,1.72874 0.69841,0.0661 1.21385,0.0643 1.14542,-0.004 -0.0684,-0.0684 -1.06696,-0.45079 -2.21896,-0.84969 -6.00162,-2.07817 -10.83656,-7.20882 -11.12955,-11.81028 -0.11807,-1.85412 0.20623,-3.06526 1.11969,-4.18173 l 0.61878,-0.7563 0.28259,1.60433 c 0.57483,3.26336 2.33103,6.64609 4.92617,9.48865 2.19871,2.40833 3.92029,3.5987 8.06218,5.5745 1.978221,0.94367 3.871711,1.93115 4.207781,2.19442 0.60388,0.47307 0.62278,0.4669 1.61824,-0.52856 0.55397,-0.55397 1.5659,-1.22058 2.24874,-1.48136 1.06193,-0.40555 1.43358,-0.42981 2.56913,-0.1677 0.73019,0.16855 1.9436,0.31832 2.69649,0.33282 0.75288,0.0145 1.66653,0.11198 2.03033,0.21661 0.60902,0.17515 0.57828,0.20633 -0.38773,0.39319 -2.63026,0.50878 -3.97584,1.67339 -5.70839,4.94069 -2.67565,5.04583 -5.11116,6.81876 -11.700491,8.51736 l -3.37683,0.87048 -1.15401,1.71192 c -1.46638,2.17529 -4.29384,4.88697 -5.78204,5.54528 -1.64462,0.72749 -3.08293,0.87283 -4.10353,0.41467 z M 109.49856,150.9761 c 0.40647,-0.40647 0.1237,-1.02609 -0.46826,-1.02609 -0.58332,0 -0.88242,0.41257 -0.68052,0.93871 0.17571,0.45788 0.73568,0.50048 1.14878,0.0874 z m -12.494111,20.93326 c -2.17936,-0.25895 -3.83727,-0.74935 -3.83241,-1.13361 0.0119,-0.93743 0.39229,-1.03084 2.45939,-0.60387 4.14564,0.85631 8.022881,0.33888 12.061771,-1.60969 2.07516,-1.00116 2.8682,-1.57866 4.79229,-3.48979 1.94443,-1.93134 2.49692,-2.68387 3.52674,-4.80364 2.19985,-4.52816 2.56947,-9.0683 1.11229,-13.66279 -0.91677,-2.89059 -2.31894,-5.16275 -4.64195,-7.52209 -2.26256,-2.29795 -4.7279,-3.85148 -7.80521,-4.91845 -1.92199,-0.6664 -2.45734,-0.7339 -5.820831,-0.7339 -3.35894,0 -3.89814,0.0678 -5.78547,0.72708 -1.9782,0.69105 -2.09904,0.70372 -2.43899,0.25559 -0.19672,-0.25932 -0.36146,-0.5556 -0.36609,-0.65841 -0.0152,-0.33648 4.2999,-1.55709 6.46935,-1.83002 6.219801,-0.78248 13.042381,1.83768 17.462401,6.70632 7.11056,7.83224 7.07783,19.36893 -0.0766,26.98288 -4.41466,4.69822 -10.79716,7.04529 -17.116721,6.29439 z m -14.58434,-9.15962 c -1.85417,-2.89855 -2.99481,-6.32496 -3.00586,-9.02942 -0.004,-1.01543 0.0577,-1.12448 0.63782,-1.12448 0.58419,0 0.65923,0.1379 0.82783,1.52135 0.37011,3.03694 1.51055,5.99318 3.21456,8.3328 l 0.91419,1.25519 -0.70006,0.26617 c -0.38503,0.14638 -0.75331,0.26616 -0.81841,0.26616 -0.0651,0 -0.54662,-0.6695 -1.07007,-1.48777 z m 18.953681,-15.53663 c -1.830241,-0.81545 -3.399711,-1.71497 -4.017271,-2.30244 -0.90679,-0.8626 -1.01339,-1.10082 -1.01222,-2.26188 9.8e-4,-0.96669 0.1611,-1.49744 0.62769,-2.08059 l 0.62637,-0.78285 0.2984,1.39138 c 0.39915,1.86117 0.85155,2.67358 2.134031,3.83222 1.17138,1.05827 2.03241,1.3401 1.15177,0.37699 -1.592081,-1.74117 -2.078881,-4.46719 -1.14297,-6.40052 0.34125,-0.70493 0.90929,-1.38532 1.34444,-1.61034 1.15613,-0.59786 1.37314,-0.4875 0.88762,0.4514 -0.93693,1.81182 0.0253,6.57335 1.59089,7.8727 0.37894,0.3145 0.38083,0.2434 0.0206,-0.77748 -0.61549,-1.74449 -0.51516,-4.67074 0.20322,-5.92703 0.65997,-1.15414 1.56865,-1.90356 2.6062,-2.14943 l 0.69232,-0.16405 -0.82461,1.66234 c -0.70571,1.42266 -0.83671,2.00731 -0.9085,4.05473 -0.0737,2.10271 -0.007,2.54273 0.55175,3.63418 l 0.63564,1.24181 -1.23083,0.63858 -1.23084,0.63858 z"
       id="path1" /></g></svg>
